<?xml version="1.0" encoding="UTF-8" standalone="no"?>
<svg
   width="400"
   height="400"
   viewBox="0 0 400 400"
   fill="none"
   version="1.1"
   id="svg14"
   sodipodi:docname="logo_dark.svg"
   inkscape:version="1.2.2 (b0a8486541, 2022-12-01)"
   xmlns:inkscape="http://www.inkscape.org/namespaces/inkscape"
   xmlns:sodipodi="http://sodipodi.sourceforge.net/DTD/sodipodi-0.dtd"
   xmlns="http://www.w3.org/2000/svg"
   xmlns:svg="http://www.w3.org/2000/svg">
  <defs
     id="defs18" />
  <sodipodi:namedview
     id="namedview16"
     pagecolor="#ffffff"
     bordercolor="#666666"
     borderopacity="1.0"
     inkscape:showpageshadow="2"
     inkscape:pageopacity="0.0"
     inkscape:pagecheckerboard="true"
     inkscape:deskcolor="#d1d1d1"
     showgrid="false"
     inkscape:zoom="0.87062523"
     inkscape:cx="-66.618791"
     inkscape:cy="87.293588"
     inkscape:window-width="1850"
     inkscape:window-height="1011"
     inkscape:window-x="0"
     inkscape:window-y="0"
     inkscape:window-maximized="1"
     inkscape:current-layer="svg14" />
  <circle
     style="fill:#333333;fill-opacity:1;stroke-width:1.37901"
     id="path286"
     cx="200"
     cy="200"
     r="185.71049" />
  <g
     id="g1942"
     transform="translate(40.001598,39.917623)">
    <path
       d="m 167.7474,5.55952 34.31,34.30968 c 2.137,2.1378 2.137,5.6092 0,7.747 l -38.184,38.1832 c -2.137,2.1378 -5.609,2.1378 -7.747,-1e-4 l -38.183,-38.1831 c -2.138,-2.1378 -2.138,-5.6092 0,-7.747 l 34.31,-34.30967 c 4.276,-4.27574 11.218,-4.27566 15.494,-10e-6 z"
       fill="#ffffff"
       id="path2" />
    <path
       d="m 260.2254,98.0365 -38.184,-38.1829 c -2.139,-2.1393 -5.607,-2.1393 -7.747,0 l -38.183,38.1829 c -2.139,2.14 -2.139,5.608 0,7.747 l 38.183,38.183 c 2.14,2.14 5.608,2.14 7.747,0 l 38.184,-38.183 c 2.139,-2.139 2.139,-5.607 0,-7.747 z"
       fill="#4bffb6"
       id="path4" />
    <path
       d="m 202.0544,156.2065 -38.183,-38.183 c -2.139,-2.139 -5.607,-2.139 -7.747,0 l -38.183,38.183 c -2.139,2.14 -2.139,5.608 0,7.747 l 38.183,38.183 c 2.139,2.14 5.608,2.14 7.747,10e-4 l 38.183,-38.184 c 2.14,-2.139 2.14,-5.607 0,-7.747 z"
       fill="#4bffb6"
       id="path6" />
    <path
       d="m 280.2114,118.0235 34.31,34.31 c 4.276,4.276 4.276,11.218 0,15.494 l -34.31,34.31 c -2.137,2.137 -5.609,2.137 -7.747,0 l -38.183,-38.184 c -2.138,-2.137 -2.138,-5.609 0,-7.747 l 38.183,-38.183 c 2.138,-2.138 5.61,-2.138 7.747,0 z"
       fill="#4bffb6"
       id="path8" />
    <path
       d="m 260.2254,214.3765 -38.184,-38.183 c -2.139,-2.139 -5.607,-2.139 -7.747,0 l -38.183,38.183 c -2.139,2.14 -2.139,5.608 0,7.747 l 38.183,38.184 c 2.14,2.139 5.608,2.139 7.747,0 l 38.184,-38.184 c 2.139,-2.139 2.139,-5.607 0,-7.747 z"
       fill="#4bffb6"
       id="path10" />
    <path
       d="m 93.464201,156.2095 50.423199,-50.423 c 2.139,-2.14 2.139,-5.608 0,-7.747 l -38.183,-38.1836 c -2.14,-2.1393 -5.6082,-2.1393 -7.747499,0 l -54.2965,54.2966 -38.18307,38.183 c -4.27857,4.279 -4.27857,11.215 0,15.494 l 38.18317,38.183 108.590899,108.591 c 4.278,4.278 11.215,4.278 15.494,0 l 34.309,-34.31 c 2.14,-2.139 2.14,-5.607 0,-7.747 L 93.464201,163.9565 c -2.1393,-2.14 -2.1393,-5.608 0,-7.747 z"
       fill="#ffffff"
       id="path12" />
  </g>
</svg>
